<?xml version="1.0" encoding="utf-8"?>
<!-- Generator: Adobe Illustrator 21.0.2, SVG Export Plug-In . SVG Version: 6.00 Build 0)  -->
<svg xmlns="http://www.w3.org/2000/svg" xmlns:xlink="http://www.w3.org/1999/xlink" version="1.1" id="Layer_1" x="0px" y="0px" viewBox="0 0 30 30" style="enable-background:new 0 0 30 30;" xml:space="preserve" width="40px" height="40px">
<g>
	<path style="fill:#BAE0BD;" d="M15,28.5C7.6,28.5,1.5,22.4,1.5,15S7.6,1.5,15,1.5S28.5,7.6,28.5,15S22.4,28.5,15,28.5z"/>
	<g>
		<path style="fill:#5E9C76;" d="M15,2c7.2,0,13,5.8,13,13s-5.8,13-13,13S2,22.2,2,15S7.8,2,15,2 M15,1C7.3,1,1,7.3,1,15    s6.3,14,14,14s14-6.3,14-14S22.7,1,15,1L15,1z"/>
	</g>
</g>
<polygon style="fill:#FFFFFF;" points="12.8,20.8 7.8,15.7 9.2,14.3 12.8,17.9 21.8,8.9 23.2,10.4 "/>
</svg>
