<?xml version="1.0" encoding="UTF-8"?>
<svg xmlns="http://www.w3.org/2000/svg" xmlns:xlink="http://www.w3.org/1999/xlink" viewBox="0 0 40 40" version="1.1" width="40px" height="40px">
<g id="surface1">
<path style=" fill:#98CCFD;" d="M 20 38.5 C 9.800781 38.5 1.5 30.199219 1.5 20 C 1.5 9.800781 9.800781 1.5 20 1.5 C 30.199219 1.5 38.5 9.800781 38.5 20 C 38.5 30.199219 30.199219 38.5 20 38.5 Z "/>
<path style=" fill:#4788C7;" d="M 20 2 C 29.925781 2 38 10.074219 38 20 C 38 29.925781 29.925781 38 20 38 C 10.074219 38 2 29.925781 2 20 C 2 10.074219 10.074219 2 20 2 M 20 1 C 9.507813 1 1 9.507813 1 20 C 1 30.492188 9.507813 39 20 39 C 30.492188 39 39 30.492188 39 20 C 39 9.507813 30.492188 1 20 1 Z "/>
<path style=" fill:#FFFFFF;" d="M 13.988281 28.132813 L 11.867188 26.011719 L 26.011719 11.867188 L 28.132813 13.988281 Z "/>
<path style=" fill:#FFFFFF;" d="M 11.867188 13.988281 L 13.988281 11.867188 L 28.132813 26.011719 L 26.011719 28.132813 Z "/>
<path style=" fill:#FFFFFF;" d="M 28.132813 13.988281 L 26.011719 11.867188 L 20 17.878906 L 13.988281 11.867188 L 11.867188 13.988281 L 17.878906 20 L 11.867188 26.011719 L 13.988281 28.132813 L 20 22.121094 L 26.011719 28.132813 L 28.132813 26.011719 L 22.121094 20 Z "/>
</g>
</svg>
