<?xml version="1.0" encoding="UTF-8"?>
<svg width="345px" height="76px" viewBox="0 0 345 76" version="1.1" xmlns="http://www.w3.org/2000/svg" xmlns:xlink="http://www.w3.org/1999/xlink">
    <!-- Generator: Sketch 49.1 (51147) - http://www.bohemiancoding.com/sketch -->
    <title>Logo</title>
    <desc>Created with Sketch.</desc>
    <defs>
        <polygon id="path-1" points="0 0.616 75.5908388 0.616 75.5908388 75.9727173 0 75.9727173"></polygon>
    </defs>
    <g id="Homepage" stroke="none" stroke-width="1" fill="none" fill-rule="evenodd">
        <g id="Desktop-HD---Services" transform="translate(-60.000000, -36.000000)">
            <g id="Navigation">
                <g id="Logo" transform="translate(60.000000, 35.000000)">
                    <g id="Page-1">
                        <path d="M132.243443,20.0337573 L132.243443,25.267704 L127.957204,25.267704 C126.038593,25.2697573 124.118951,25.2358773 122.201369,25.283104 C120.228175,25.332384 119.477413,26.0140907 119.448578,27.9247173 C119.395025,31.341464 119.389876,34.7612907 119.462996,38.1780373 C119.506249,40.2098107 120.234354,40.8329973 122.284787,40.8391573 C127.182757,40.8514773 132.080727,40.8453173 136.979727,40.8422373 C137.255727,40.8422373 137.531727,40.8114373 137.899384,40.790904 L137.899384,10.6459173 L143.741727,10.6459173 L143.741727,46.2045173 L142.498697,46.2045173 C135.273264,46.2045173 128.047831,46.2106773 120.822399,46.2034907 C115.405384,46.1973307 113.594906,44.4571307 113.560921,39.069184 C113.532085,34.4717707 113.507369,29.8712773 113.687593,25.280024 C113.818384,21.950544 115.627831,20.173384 118.956309,20.0676373 C123.350682,19.9280107 127.754324,20.0337573 132.243443,20.0337573" id="Fill-1" fill="#FFFFFF"></path>
                        <path d="M173.676399,40.8449067 L173.676399,25.3134933 L152.251384,25.3134933 L152.251384,20.01384 C152.578876,19.9881733 152.89504,19.9409467 153.212234,19.93992 C159.623055,19.9358133 166.032846,19.9358133 172.442637,19.93992 C172.891652,19.93992 173.340667,19.9635333 173.788652,19.9963867 C177.782413,20.2869333 179.567145,22.1503333 179.593921,26.1841067 C179.629966,31.5966933 179.606279,37.0113333 179.608339,42.42392 L179.608339,46.1363467 C179.163443,46.16304 178.809175,46.20308 178.454906,46.20308 C171.104861,46.20616 163.755846,46.2112933 156.406831,46.19692 C155.635473,46.1948667 154.856906,46.1312133 154.096876,46.0069867 C151.368801,45.56244 149.886846,44.3324933 149.606727,41.6405733 C149.357503,39.2392 149.408996,36.7598 149.700443,34.36048 C149.99704,31.9242 151.505772,30.57208 153.943428,30.3482667 C156.496428,30.1152133 159.075175,30.1511467 161.642593,30.1090533 C163.720831,30.0762 165.80113,30.1018667 167.971025,30.1018667 L167.971025,35.4590133 L160.021607,35.4590133 C159.490204,35.4590133 158.959831,35.4579867 158.428428,35.4590133 C155.5881,35.4610667 155.081413,36.0072533 155.286354,38.8552267 C155.387279,40.2597067 155.93516,40.81924 157.376951,40.8295067 C161.011294,40.8562 164.644607,40.8428533 168.278951,40.84388 C170.031757,40.8449067 171.785593,40.8449067 173.676399,40.8449067" id="Fill-3" fill="#FFFFFF"></path>
                        <path d="M245.269151,46.2048253 C239.333091,46.2048253 233.580345,46.2253587 227.826569,46.196612 C225.137628,46.1832653 222.43221,46.2376787 219.762837,45.9727987 C217.017255,45.700732 215.549718,44.3352653 215.269599,41.644372 C215.018315,39.241972 215.069807,36.7635987 215.361255,34.363252 C215.656822,31.9279987 217.168643,30.571772 219.602181,30.350012 C222.154151,30.1149053 224.732897,30.1508387 227.300315,30.1087453 C229.378554,30.075892 231.458852,30.1015587 233.629778,30.1015587 L233.629778,35.4587053 L228.621613,35.4587053 C226.9893,35.4587053 225.355957,35.4545987 223.722613,35.459732 C221.207718,35.4669187 219.903927,37.6875987 221.218016,39.8897987 C221.504315,40.3702787 222.332315,40.7871053 222.91624,40.7932653 C228.342524,40.862052 233.770867,40.834332 239.293957,40.834332 L239.293957,25.314212 L217.913225,25.314212 L217.913225,20.0001853 C218.279852,19.9786253 218.63721,19.939612 218.994569,19.939612 C225.323001,19.9355053 231.651434,19.9355053 237.979867,19.939612 C238.469046,19.939612 238.959255,19.961172 239.447404,19.9971053 C243.442196,20.2855987 245.225897,22.1469453 245.254733,26.1817453 C245.291807,31.5132253 245.268121,36.845732 245.269151,42.1782387 C245.269151,43.4728653 245.269151,44.767492 245.269151,46.2048253" id="Fill-5" fill="#FFFFFF"></path>
                        <path d="M270.855999,19.9686667 L270.855999,25.2252 L257.994193,25.2252 L257.994193,46.1076 L252.029297,46.1076 C252.012819,45.71644 251.975745,45.2872933 251.975745,44.85712 C251.972655,38.8798667 251.974715,32.9026133 251.974715,26.9233067 C251.974715,26.6799867 251.969566,26.43564 251.985013,26.19232 C252.259984,21.7899733 253.865521,20.1175333 258.28873,19.9933067 C262.439028,19.8772933 266.594476,19.9686667 270.855999,19.9686667" id="Fill-7" fill="#FFFFFF"></path>
                        <polygon id="Fill-9" fill="#FFFFFF" points="192.024116 10.586268 197.902504 10.586268 197.902504 19.9392013 209.677818 19.9392013 209.677818 25.2049747 184.566967 25.2049747 184.566967 19.9751347 192.024116 19.9751347"></polygon>
                        <path d="M197.91857,30.3807093 C197.91857,31.983336 197.91651,33.5582427 197.9196,35.134176 C197.92166,36.2327093 197.899003,37.3322693 197.944316,38.429776 C198.011257,40.0755227 198.727003,40.7993227 200.386093,40.8249893 C202.996764,40.8640027 205.609496,40.8403893 208.221197,40.844496 L209.634152,40.844496 L209.634152,46.1061627 C209.381839,46.135936 209.075973,46.1995893 208.770107,46.200616 C205.341734,46.2057493 201.912331,46.2324427 198.483958,46.191376 C194.045301,46.1379893 192.149346,44.281776 192.064899,39.8660827 C192.005167,36.7378293 192.05357,33.6075227 192.05357,30.3807093 L197.91857,30.3807093 Z" id="Fill-11" fill="#FFFFFF"></path>
                        <path d="M343.252755,43.189916 C342.468009,43.196076 341.42271,43.2001827 340.966487,43.1847827 C340.007696,43.1570627 339.729636,42.8870493 339.674024,41.9230093 C339.667845,41.8244493 339.666815,41.7248627 339.664755,41.5441693 C339.657546,41.0380227 339.656516,40.531876 339.656516,40.0257293 C339.654457,38.8707293 339.653427,37.6787693 339.580307,36.500156 C339.484531,34.994036 338.860442,33.783596 337.764681,32.9571293 C337.818233,32.9170893 337.869725,32.8760227 337.920188,32.8339293 C338.94386,31.969476 339.503069,30.789836 339.580307,29.3247827 C339.63489,28.2868227 339.643128,27.2468093 339.650337,26.2057693 C339.654457,25.6298093 339.657546,25.051796 339.670934,24.4737827 C339.675054,24.223276 339.710069,23.939916 339.778039,23.5816093 C339.83674,23.2766893 339.993278,23.129876 340.289875,23.1042093 C340.73786,23.0641693 341.69871,23.0508227 342.471099,23.0385027 C342.889218,23.0333693 343.265113,23.0272093 343.510218,23.0200227 C343.604964,23.015916 343.70074,23.0169427 343.800636,23.0179693 L344.520501,23.0200227 L344.520501,18.7983693 L343.938636,18.827116 C343.397964,18.8527827 342.729591,18.870236 342.024143,18.8876893 C340.687397,18.922596 339.172487,18.9616093 338.148815,19.073516 C336.301263,19.2747427 335.105606,20.4030493 334.783263,22.2500227 C334.659681,22.9707427 334.587591,23.7007027 334.570084,24.417316 C334.554636,25.1298227 334.556696,25.843356 334.557725,26.5558627 C334.559785,27.318676 334.560815,28.0814893 334.540218,28.843276 C334.514472,29.8309293 333.059293,30.6769027 331.824501,31.1019427 C331.476412,31.2189827 331.256024,31.6204093 331.249845,31.9222493 C331.238516,32.3401027 331.238516,32.7569293 331.239546,33.1747827 C331.239546,33.4612227 331.239546,33.7486893 331.236457,34.0351293 C331.230278,34.6110893 331.639128,34.8071827 331.795666,34.8811027 C332.002666,34.9796627 332.310591,35.049476 332.795651,35.1583027 C333.136531,35.2322227 333.770919,35.372876 333.900681,35.4570627 C334.437233,35.9416493 334.550516,36.6192493 334.557725,37.4867827 C334.561845,38.0535027 334.559785,38.6212493 334.558755,39.188996 C334.556696,39.9887693 334.554636,40.7885427 334.566994,41.588316 C334.582442,42.4558493 334.632904,43.1139427 334.73074,43.7217293 C334.999531,45.389036 335.939785,46.5152893 337.449546,46.9793427 C338.071576,47.1682493 338.577233,47.2637293 339.041696,47.2781027 C339.593696,47.2945293 340.356815,47.298636 341.14877,47.298636 C341.707979,47.298636 342.281606,47.2965827 342.80477,47.2945293 L344.52977,47.2914493 L344.52977,43.1878627 L343.252755,43.189916 Z" id="Fill-13" fill="#FFFFFF"></path>
                        <path d="M325.592978,31.00328 L325.395246,30.9386 C324.062619,30.5022667 323.341724,30.13164 323.255216,29.83904 C323.125455,29.4006533 323.048216,28.8883467 323.028649,28.3154667 C323.002903,27.6009067 322.994664,26.8842933 322.985396,26.1687067 C322.970978,25.0558 322.95656,23.9049067 322.879321,22.7683867 C322.731022,20.5949333 321.469455,19.2725867 319.327366,19.04672 C318.258381,18.9348133 316.67447,18.9224933 315.276963,18.9132533 C314.652873,18.90812 314.069978,18.9040133 313.596246,18.8906667 L313.36453,18.89272 L312.959799,19.1935333 L312.959799,23.01068 L314.314052,23.0086267 C315.176037,23.00452 316.306813,23.00144 316.845425,23.0147867 C317.610604,23.03224 317.786709,23.2889067 317.858799,23.7878667 C317.895873,24.0414533 317.91647,24.3012 317.91853,24.5588933 C317.922649,25.0866 317.924709,25.6153333 317.924709,26.1440667 C317.925739,27.04548 317.926769,27.9458667 317.946336,28.84728 C317.973112,30.0741467 318.270739,31.1059467 318.854664,32.00428 C319.104918,32.38928 319.411813,32.71268 319.78153,32.98372 C318.722843,33.85228 318.115231,35.0514267 317.972082,36.56268 C317.91956,37.1222133 317.924709,37.6827733 317.928828,38.2238267 C317.930888,38.4835733 317.932948,38.7422933 317.928828,39.0010133 L317.91647,39.8295333 C317.906172,40.6293067 317.895873,41.4301067 317.858799,42.22988 C317.835112,42.72268 317.663127,42.9516267 317.221321,43.0748267 C317.025649,43.1302667 316.794963,43.16004 316.518963,43.1682533 C316.034933,43.1795467 314.936082,43.1744133 314.131769,43.1733867 L312.892858,43.17236 L312.892858,46.74208 L312.926843,47.0572667 L313.356291,47.33652 L314.462351,47.34576 C314.925784,47.3508933 315.421142,47.35808 315.924739,47.35808 C317.191455,47.35808 318.504515,47.3190667 319.462276,47.1383733 C321.264515,46.7995733 322.411769,45.7205467 322.780455,44.0214133 C322.908157,43.4351867 322.978187,42.8222667 322.991575,42.19908 C323.011142,41.31512 323.016291,40.43116 323.02247,39.54412 C323.027619,38.6827467 323.033799,37.8224 323.052336,36.9589733 C323.068813,36.10068 324.480739,35.3101467 325.683604,34.8953733 C326.116142,34.7465067 326.33241,34.4333733 326.325201,33.96316 C326.315933,33.33176 326.308724,32.6983067 326.327261,32.0669067 C326.33241,31.8667067 326.348888,31.25584 325.592978,31.00328" id="Fill-15" fill="#FF4E00"></path>
                        <path d="M300.038261,40.8699573 L281.710007,40.8319707 L281.710007,25.249224 C283.82841,25.249224 297.968261,25.2851573 300.038261,25.2851573 L300.038261,40.8699573 Z M305.875455,25.024384 C305.830142,22.8704373 304.761157,21.085064 302.515052,20.4146507 C300.420336,19.791464 298.288545,19.8756507 296.143366,19.936224 L286.584291,19.936224 C285.294918,19.933144 284.042619,19.930064 282.809888,19.9444373 C282.077664,19.9536773 281.340291,19.991664 280.613216,20.084064 C277.82644,20.438264 276.007724,22.049104 275.929455,24.8354773 C275.773948,30.3568907 275.796604,35.887544 275.936664,41.4110107 C275.999485,43.886304 277.615321,45.623424 280.002515,45.9088373 C282.611127,46.2219707 298.464649,46.291784 300.725172,46.1090373 C303.941396,45.8472373 305.660216,44.351384 305.814694,41.1071173 C306.068037,35.7571573 305.990799,30.383584 305.875455,25.024384 Z" id="Fill-17" fill="#FFFFFF"></path>
                        <g id="Group-21" transform="translate(0.000000, 0.410975)">
                            <mask id="mask-2" fill="white">
                                <use xlink:href="#path-1"></use>
                            </mask>
                            <g id="Clip-20"></g>
                            <path d="M58.7599881,59.951584 C56.6776299,59.951584 53.5746896,59.9936773 51.5057194,59.930024 C50.7127343,59.9064107 49.9053313,59.714424 49.1411821,59.480344 C46.8755104,58.7852907 45.6901522,57.1313307 45.3266149,54.8777973 C45.1484507,53.7710507 45.0897493,52.639664 45.0701821,51.518544 C45.0320776,49.285544 45.0712119,47.0535707 45.0537045,44.8205707 C45.043406,43.3452507 44.8467045,41.8925173 43.684003,40.8391573 C43.1649582,40.368944 42.4821672,40.0588907 41.8374806,39.7519173 C41.5532418,39.6163973 41.434809,39.5044907 41.4389284,39.1944373 C41.4533463,38.0476507 41.4296597,36.900864 41.4595254,35.755104 C41.4636448,35.5774907 41.6294507,35.296184 41.7828985,35.2448507 C43.9507343,34.501544 44.967197,32.9204773 45.0269284,30.722384 C45.0928388,28.310744 45.0207493,25.8939707 45.0753313,23.4823307 C45.1021075,22.341704 45.2174507,21.1938907 45.4131224,20.0707173 C45.8693463,17.4486107 47.5150478,15.907584 50.1195403,15.624224 C52.6148687,15.353184 56.1688836,15.3490773 58.7445403,15.2248507 L58.7445403,20.271944 C58.4747194,20.271944 58.2213761,20.2647573 57.9680328,20.2729707 C56.8022418,20.3130107 54.6004209,20.311984 53.4387493,20.413624 C52.5499881,20.4916507 51.964003,21.0316773 51.7930478,21.925904 C51.6910925,22.4566907 51.611794,22.997744 51.5994358,23.5357173 C51.5448537,26.170144 51.591197,28.8076507 51.453197,31.4359173 C51.3491821,33.4132773 50.6344657,35.203784 49.058794,36.531264 C48.6643612,36.8649307 48.2009284,37.1174907 47.7611821,37.412144 C47.7622119,37.4141973 47.7673612,37.4696373 47.7941373,37.482984 C50.1391075,38.7067707 51.2946,40.7467573 51.453197,43.273384 C51.6231224,45.999184 51.5541224,48.7393573 51.5901672,51.4743973 C51.5932567,51.6951307 51.5942866,51.9168907 51.6076746,52.137624 C51.7250776,54.170424 52.5510179,54.986624 54.5983612,55.0471973 C55.6251224,55.0769707 57.6827642,55.0523307 58.7599881,55.0523307 L58.7599881,59.951584 Z M34.3803313,38.979864 C34.3854806,39.321744 34.313391,39.5085973 33.9426448,39.635904 C31.9879881,40.310424 30.8860478,41.779584 30.8417642,43.846264 C30.781003,46.701424 30.8067493,49.556584 30.7439284,52.4107173 C30.7233313,53.3501173 30.6182866,54.3018373 30.4184955,55.2196773 C29.8716448,57.743224 28.2032866,59.147704 25.7131075,59.6168907 C23.1570179,60.099424 19.5401821,59.9320773 16.960406,59.926944 C16.925391,59.926944 16.891406,59.889984 16.8316746,59.8581573 L16.8316746,54.925024 C17.9315552,54.925024 20.0273015,54.943504 21.0911373,54.9178373 C21.5504507,54.906544 22.0221224,54.8552107 22.4628985,54.7330373 C23.5401224,54.432224 24.1086,53.736144 24.1652418,52.5236507 C24.2476299,50.7567573 24.2507194,48.986784 24.2805851,47.218864 C24.3022119,45.9119173 24.2249731,44.5967573 24.3475254,43.3000773 C24.5895403,40.741624 25.716197,38.6667307 28.0951522,37.2961307 C27.0488239,36.8320773 26.2383313,36.1791173 25.6482269,35.271544 C24.7193015,33.8444773 24.3454657,32.250064 24.308391,30.5827573 C24.2579284,28.2501707 24.2847045,25.917584 24.2651373,23.5839707 C24.2610179,23.1229973 24.2239433,22.658944 24.157003,22.203104 C23.9582418,20.8314773 23.1889433,20.201104 21.6246,20.164144 C20.4186448,20.136424 18.181809,20.157984 16.9408388,20.157984 L16.9408388,15.2997973 C16.9861522,15.270024 17.0170478,15.2289573 17.0479433,15.229984 C19.5443015,15.2987707 23.0869881,15.220744 25.5627493,15.4815173 C28.6409731,15.805944 30.3505254,17.6210907 30.5616448,20.7288107 C30.7665851,23.7328373 30.6975851,26.7543173 30.8046896,29.7665573 C30.8376448,30.6772107 30.9540179,31.6114773 31.2125104,32.4820907 C31.5914955,33.756184 32.5595552,34.569304 33.8015552,34.9861307 C34.2938239,35.1503973 34.396809,35.3813973 34.3844507,35.8433973 C34.3545851,36.8875173 34.3648836,37.9347173 34.3803313,38.979864 Z M-0.000205970149,75.9727173 L75.5908388,75.9727173 L75.5908388,0.615384 L-0.000205970149,0.615384 L-0.000205970149,75.9727173 Z" id="Fill-19" fill="#FF4E00" mask="url(#mask-2)"></path>
                        </g>
                    </g>
                    <path d="M114.232,62.216 L115.72,62.216 L115.72,73 L114.232,73 L114.232,62.216 Z M118.152,73 L118.152,67.384 C118.152,66.525329 118.130667,65.8160028 118.088,65.256 L119.4,65.256 L119.528,66.568 C119.773335,66.1199978 120.133331,65.7600014 120.608,65.488 C121.082669,65.2159986 121.602664,65.08 122.168,65.08 C122.978671,65.08 123.653331,65.3666638 124.192,65.94 C124.730669,66.5133362 125,67.3519945 125,68.456 L125,73 L123.512,73 L123.512,68.616 C123.512,67.8853297 123.354668,67.3186687 123.04,66.916 C122.725332,66.5133313 122.269336,66.312 121.672,66.312 C121.138664,66.312 120.666669,66.511998 120.256,66.912 C119.845331,67.312002 119.64,67.7999971 119.64,68.376 L119.64,73 L118.152,73 Z M127.64,63.816 L129.096,63.384 L129.096,65.256 L131.16,65.256 L131.16,66.392 L129.096,66.392 L129.096,70.424 C129.096,70.9626694 129.182666,71.3506655 129.356,71.588 C129.529334,71.8253345 129.805331,71.944 130.184,71.944 C130.530668,71.944 130.813332,71.9120003 131.032,71.848 L131.096,72.968 C130.727998,73.1066674 130.285336,73.176 129.768,73.176 C128.349326,73.176 127.64,72.2906755 127.64,70.52 L127.64,66.392 L126.424,66.392 L126.424,65.256 L127.64,65.256 L127.64,63.816 Z M139.176,69.432 L133.56,69.432 C133.581333,70.2693375 133.839998,70.9106644 134.336,71.356 C134.832002,71.8013356 135.474663,72.024 136.264,72.024 C137.122671,72.024 137.874663,71.890668 138.52,71.624 L138.776,72.664 C138.01333,73.005335 137.112005,73.176 136.072,73.176 C134.866661,73.176 133.90667,72.8186702 133.192,72.104 C132.47733,71.3893298 132.12,70.4400059 132.12,69.256 C132.12,68.0719941 132.462663,67.080004 133.148,66.28 C133.833337,65.479996 134.754661,65.08 135.912,65.08 C136.978672,65.08 137.79733,65.4359964 138.368,66.148 C138.93867,66.8600036 139.224,67.7306615 139.224,68.76 C139.224,69.0533348 139.208,69.2773326 139.176,69.432 Z M133.576,68.36 L137.784,68.36 C137.784,67.69333 137.612002,67.156002 137.268,66.748 C136.923998,66.339998 136.43467,66.136 135.8,66.136 C135.19733,66.136 134.698669,66.339998 134.304,66.748 C133.909331,67.156002 133.666667,67.69333 133.576,68.36 Z M141.016,73 L141.016,61.608 L142.504,61.608 L142.504,73 L141.016,73 Z M144.888,73 L144.888,61.608 L146.376,61.608 L146.376,73 L144.888,73 Z M150.248,73 L148.76,73 L148.76,65.256 L150.248,65.256 L150.248,73 Z M150.456,62.904 C150.456,63.170668 150.368001,63.3946658 150.192,63.576 C150.015999,63.7573342 149.784001,63.848 149.496,63.848 C149.218665,63.848 148.992001,63.7573342 148.816,63.576 C148.639999,63.3946658 148.552,63.170668 148.552,62.904 C148.552,62.6426654 148.641332,62.4226676 148.82,62.244 C148.998668,62.0653324 149.229332,61.976 149.512,61.976 C149.784001,61.976 150.009332,62.0653324 150.188,62.244 C150.366668,62.4226676 150.456,62.6426654 150.456,62.904 Z M159.512,67.352 L159.512,71.848 C159.512,73.5333418 159.14667,74.7066634 158.416,75.368 C157.68533,76.0293366 156.690673,76.36 155.432,76.36 C154.311994,76.36 153.41067,76.1360022 152.728,75.688 L153.096,74.552 C153.784003,74.9786688 154.573329,75.192 155.464,75.192 C156.290671,75.192 156.926664,74.962669 157.372,74.504 C157.817336,74.045331 158.04,73.3733378 158.04,72.488 L158.008,71.64 C157.447997,72.5253378 156.594672,72.968 155.448,72.968 C154.471995,72.968 153.660003,72.6066703 153.012,71.884 C152.363997,71.1613297 152.04,70.2640054 152.04,69.192 C152.04,67.9493271 152.395996,66.9533371 153.108,66.204 C153.820004,65.4546629 154.669328,65.08 155.656,65.08 C156.829339,65.08 157.677331,65.5279955 158.2,66.424 L158.264,65.256 L159.576,65.256 C159.533333,65.7200023 159.512,66.418662 159.512,67.352 Z M158.024,69.624 L158.024,68.36 C158.024,67.7839971 157.829335,67.2853354 157.44,66.864 C157.050665,66.4426646 156.541336,66.232 155.912,66.232 C155.218663,66.232 154.650669,66.4959974 154.208,67.024 C153.765331,67.5520026 153.544,68.2479957 153.544,69.112 C153.544,69.9066706 153.755998,70.5586641 154.18,71.068 C154.604002,71.5773359 155.175996,71.832 155.896,71.832 C156.46667,71.832 156.963998,71.6266687 157.388,71.216 C157.812002,70.8053313 158.024,70.2746699 158.024,69.624 Z M168.376,69.432 L162.76,69.432 C162.781333,70.2693375 163.039998,70.9106644 163.536,71.356 C164.032002,71.8013356 164.674663,72.024 165.464,72.024 C166.322671,72.024 167.074663,71.890668 167.72,71.624 L167.976,72.664 C167.21333,73.005335 166.312005,73.176 165.272,73.176 C164.066661,73.176 163.10667,72.8186702 162.392,72.104 C161.67733,71.3893298 161.32,70.4400059 161.32,69.256 C161.32,68.0719941 161.662663,67.080004 162.348,66.28 C163.033337,65.479996 163.954661,65.08 165.112,65.08 C166.178672,65.08 166.99733,65.4359964 167.568,66.148 C168.13867,66.8600036 168.424,67.7306615 168.424,68.76 C168.424,69.0533348 168.408,69.2773326 168.376,69.432 Z M162.776,68.36 L166.984,68.36 C166.984,67.69333 166.812002,67.156002 166.468,66.748 C166.123998,66.339998 165.63467,66.136 165,66.136 C164.39733,66.136 163.898669,66.339998 163.504,66.748 C163.109331,67.156002 162.866667,67.69333 162.776,68.36 Z M170.216,73 L170.216,67.384 C170.216,66.525329 170.194667,65.8160028 170.152,65.256 L171.464,65.256 L171.592,66.568 C171.837335,66.1199978 172.197331,65.7600014 172.672,65.488 C173.146669,65.2159986 173.666664,65.08 174.232,65.08 C175.042671,65.08 175.717331,65.3666638 176.256,65.94 C176.794669,66.5133362 177.064,67.3519945 177.064,68.456 L177.064,73 L175.576,73 L175.576,68.616 C175.576,67.8853297 175.418668,67.3186687 175.104,66.916 C174.789332,66.5133313 174.333336,66.312 173.736,66.312 C173.202664,66.312 172.730669,66.511998 172.32,66.912 C171.909331,67.312002 171.704,67.7999971 171.704,68.376 L171.704,73 L170.216,73 Z M184.888,71.592 L185.128,72.712 C184.471997,73.0213349 183.698671,73.176 182.808,73.176 C181.613327,73.176 180.648004,72.8106703 179.912,72.08 C179.175996,71.3493297 178.808,70.3973392 178.808,69.224 C178.808,68.0026606 179.203996,67.0066705 179.996,66.236 C180.788004,65.4653295 181.82666,65.08 183.112,65.08 C183.890671,65.08 184.57333,65.2239986 185.16,65.512 L184.84,66.648 C184.349331,66.3919987 183.77867,66.264 183.128,66.264 C182.279996,66.264 181.601336,66.5319973 181.092,67.068 C180.582664,67.6040027 180.328,68.2906625 180.328,69.128 C180.328,69.9973377 180.586664,70.6893308 181.104,71.204 C181.621336,71.7186692 182.279996,71.976 183.08,71.976 C183.69867,71.976 184.30133,71.8480013 184.888,71.592 Z M193.208,69.432 L187.592,69.432 C187.613333,70.2693375 187.871998,70.9106644 188.368,71.356 C188.864002,71.8013356 189.506663,72.024 190.296,72.024 C191.154671,72.024 191.906663,71.890668 192.552,71.624 L192.808,72.664 C192.04533,73.005335 191.144005,73.176 190.104,73.176 C188.898661,73.176 187.93867,72.8186702 187.224,72.104 C186.50933,71.3893298 186.152,70.4400059 186.152,69.256 C186.152,68.0719941 186.494663,67.080004 187.18,66.28 C187.865337,65.479996 188.786661,65.08 189.944,65.08 C191.010672,65.08 191.82933,65.4359964 192.4,66.148 C192.97067,66.8600036 193.256,67.7306615 193.256,68.76 C193.256,69.0533348 193.24,69.2773326 193.208,69.432 Z M187.608,68.36 L191.816,68.36 C191.816,67.69333 191.644002,67.156002 191.3,66.748 C190.955998,66.339998 190.46667,66.136 189.832,66.136 C189.22933,66.136 188.730669,66.339998 188.336,66.748 C187.941331,67.156002 187.698667,67.69333 187.608,68.36 Z M198.568,72.968 L198.568,62.36 C199.570672,62.1999992 200.615995,62.12 201.704,62.12 C203.810677,62.12 205.361328,62.5959952 206.356,63.548 C207.350672,64.5000048 207.848,65.7626588 207.848,67.336 C207.848,69.1013422 207.301339,70.5026615 206.208,71.54 C205.114661,72.5773385 203.464011,73.096 201.256,73.096 C200.247995,73.096 199.352004,73.0533338 198.568,72.968 Z M200.056,63.432 L200.056,71.848 C200.274668,71.8906669 200.76533,71.912 201.528,71.912 C203.053341,71.912 204.226663,71.5200039 205.048,70.736 C205.869337,69.9519961 206.28,68.8400072 206.28,67.4 C206.28,66.0773267 205.893337,65.0613369 205.12,64.352 C204.346663,63.6426631 203.229341,63.288 201.768,63.288 C201.090663,63.288 200.520002,63.3359995 200.056,63.432 Z M216.2,69.432 L210.584,69.432 C210.605333,70.2693375 210.863998,70.9106644 211.36,71.356 C211.856002,71.8013356 212.498663,72.024 213.288,72.024 C214.146671,72.024 214.898663,71.890668 215.544,71.624 L215.8,72.664 C215.03733,73.005335 214.136005,73.176 213.096,73.176 C211.890661,73.176 210.93067,72.8186702 210.216,72.104 C209.50133,71.3893298 209.144,70.4400059 209.144,69.256 C209.144,68.0719941 209.486663,67.080004 210.172,66.28 C210.857337,65.479996 211.778661,65.08 212.936,65.08 C214.002672,65.08 214.82133,65.4359964 215.392,66.148 C215.96267,66.8600036 216.248,67.7306615 216.248,68.76 C216.248,69.0533348 216.232,69.2773326 216.2,69.432 Z M210.6,68.36 L214.808,68.36 C214.808,67.69333 214.636002,67.156002 214.292,66.748 C213.947998,66.339998 213.45867,66.136 212.824,66.136 C212.22133,66.136 211.722669,66.339998 211.328,66.748 C210.933331,67.156002 210.690667,67.69333 210.6,68.36 Z M218.04,73 L218.04,61.608 L219.528,61.608 L219.528,73 L218.04,73 Z M223.4,73 L221.912,73 L221.912,65.256 L223.4,65.256 L223.4,73 Z M223.608,62.904 C223.608,63.170668 223.520001,63.3946658 223.344,63.576 C223.167999,63.7573342 222.936001,63.848 222.648,63.848 C222.370665,63.848 222.144001,63.7573342 221.968,63.576 C221.791999,63.3946658 221.704,63.170668 221.704,62.904 C221.704,62.6426654 221.793332,62.4226676 221.972,62.244 C222.150668,62.0653324 222.381332,61.976 222.664,61.976 C222.936001,61.976 223.161332,62.0653324 223.34,62.244 C223.518668,62.4226676 223.608,62.6426654 223.608,62.904 Z M224.792,65.256 L226.408,65.256 L228.056,69.816 C228.242668,70.3280026 228.439999,70.9039968 228.648,71.544 C228.792001,71.0586642 229.013332,70.4000042 229.312,69.568 L230.856,65.256 L232.44,65.256 L229.288,73 L227.832,73 L224.792,65.256 Z M240.072,69.432 L234.456,69.432 C234.477333,70.2693375 234.735998,70.9106644 235.232,71.356 C235.728002,71.8013356 236.370663,72.024 237.16,72.024 C238.018671,72.024 238.770663,71.890668 239.416,71.624 L239.672,72.664 C238.90933,73.005335 238.008005,73.176 236.968,73.176 C235.762661,73.176 234.80267,72.8186702 234.088,72.104 C233.37333,71.3893298 233.016,70.4400059 233.016,69.256 C233.016,68.0719941 233.358663,67.080004 234.044,66.28 C234.729337,65.479996 235.650661,65.08 236.808,65.08 C237.874672,65.08 238.69333,65.4359964 239.264,66.148 C239.83467,66.8600036 240.12,67.7306615 240.12,68.76 C240.12,69.0533348 240.104,69.2773326 240.072,69.432 Z M234.472,68.36 L238.68,68.36 C238.68,67.69333 238.508002,67.156002 238.164,66.748 C237.819998,66.339998 237.33067,66.136 236.696,66.136 C236.09333,66.136 235.594669,66.339998 235.2,66.748 C234.805331,67.156002 234.562667,67.69333 234.472,68.36 Z M241.912,73 L241.912,67.72 C241.912,66.7173283 241.890667,65.8960032 241.848,65.256 L243.16,65.256 L243.256,66.808 C243.453334,66.2639973 243.754665,65.8400015 244.16,65.536 C244.565335,65.2319985 245.005331,65.08 245.48,65.08 C245.581334,65.08 245.714666,65.0906666 245.88,65.112 L245.88,66.52 C245.735999,66.4879998 245.565334,66.472 245.368,66.472 C244.829331,66.472 244.366669,66.6826646 243.98,67.104 C243.593331,67.5253354 243.4,68.1253294 243.4,68.904 L243.4,73 L241.912,73 Z M246.68,65.256 L248.312,65.256 L250.072,69.872 C250.221334,70.2560019 250.397332,70.7493303 250.6,71.352 C250.808001,70.6319964 250.967999,70.1120016 251.08,69.792 L252.664,65.256 L254.264,65.256 L252.072,70.792 C251.37333,72.5520088 250.806669,73.7679966 250.372,74.44 C249.937331,75.1120034 249.465336,75.6093317 248.956,75.932 C248.446664,76.2546683 247.970669,76.4559996 247.528,76.536 L247.176,75.288 C247.981337,75.0373321 248.609331,74.6053364 249.06,73.992 C249.510669,73.3786636 249.736,72.968001 249.736,72.76 C249.736,72.6693329 249.704,72.5466674 249.64,72.392 L246.68,65.256 Z M258.536,72.456 L258.92,71.224 C259.725337,71.7040024 260.594662,71.944 261.528,71.944 C262.232004,71.944 262.789331,71.781335 263.2,71.456 C263.610669,71.130665 263.816,70.6960027 263.816,70.152 C263.816,69.6506642 263.653335,69.2413349 263.328,68.924 C263.002665,68.6066651 262.46667,68.3226679 261.72,68.072 C260.695995,67.7199982 259.946669,67.2960025 259.472,66.8 C258.997331,66.3039975 258.76,65.7040035 258.76,65 C258.76,64.141329 259.095997,63.4333361 259.768,62.876 C260.440003,62.3186639 261.309328,62.04 262.376,62.04 C263.400005,62.04 264.231997,62.2213315 264.872,62.584 L264.472,63.784 C263.85333,63.4319982 263.138671,63.256 262.328,63.256 C261.67733,63.256 261.170668,63.4093318 260.808,63.716 C260.445332,64.0226682 260.264,64.3973311 260.264,64.84 C260.264,65.2880022 260.418665,65.6586652 260.728,65.952 C261.037335,66.2453348 261.618662,66.5466651 262.472,66.856 C263.496005,67.2293352 264.226664,67.6653308 264.664,68.164 C265.101336,68.6626692 265.32,69.2879962 265.32,70.04 C265.32,70.9626713 264.976003,71.7159971 264.288,72.3 C263.599997,72.8840029 262.642673,73.176 261.416,73.176 C260.903997,73.176 260.378669,73.109334 259.84,72.976 C259.301331,72.842666 258.866668,72.6693344 258.536,72.456 Z M274.552,69.048 C274.552,69.8800042 274.378668,70.6079969 274.032,71.232 C273.685332,71.8560031 273.200003,72.3359983 272.576,72.672 C271.951997,73.0080017 271.277337,73.176 270.552,73.176 C269.421328,73.176 268.488004,72.8066704 267.752,72.068 C267.015996,71.3293296 266.648,70.3706726 266.648,69.192 C266.648,67.9386604 267.027996,66.9400037 267.788,66.196 C268.548004,65.4519963 269.506661,65.08 270.664,65.08 C271.816006,65.08 272.751996,65.4493296 273.472,66.188 C274.192004,66.9266704 274.552,67.8799942 274.552,69.048 Z M268.168,69.144 C268.168,69.9920042 268.394664,70.6919972 268.848,71.244 C269.301336,71.7960028 269.86933,72.072 270.552,72.072 C271.25067,72.072 271.833331,71.7946694 272.3,71.24 C272.766669,70.6853306 273,69.970671 273,69.096 C273,68.2906626 272.785335,67.6040028 272.356,67.036 C271.926665,66.4679972 271.341337,66.184 270.6,66.184 C269.847996,66.184 269.254669,66.4653305 268.82,67.028 C268.385331,67.5906695 268.168,68.2959958 268.168,69.144 Z M276.36,73 L276.36,61.608 L277.848,61.608 L277.848,73 L276.36,73 Z M286.968,65.256 L286.968,70.856 C286.968,71.7360044 286.989333,72.4506639 287.032,73 L285.72,73 L285.592,71.688 C284.994664,72.680005 284.109339,73.176 282.936,73.176 C282.087996,73.176 281.417336,72.8853362 280.924,72.304 C280.430664,71.7226638 280.184,70.8666723 280.184,69.736 L280.184,65.256 L281.672,65.256 L281.672,69.48 C281.672,71.1226749 282.263994,71.944 283.448,71.944 C283.992003,71.944 284.466665,71.7493353 284.872,71.36 C285.277335,70.9706647 285.48,70.4986694 285.48,69.944 L285.48,65.256 L286.968,65.256 Z M289.672,63.816 L291.128,63.384 L291.128,65.256 L293.192,65.256 L293.192,66.392 L291.128,66.392 L291.128,70.424 C291.128,70.9626694 291.214666,71.3506655 291.388,71.588 C291.561334,71.8253345 291.837331,71.944 292.216,71.944 C292.562668,71.944 292.845332,71.9120003 293.064,71.848 L293.128,72.968 C292.759998,73.1066674 292.317336,73.176 291.8,73.176 C290.381326,73.176 289.672,72.2906755 289.672,70.52 L289.672,66.392 L288.456,66.392 L288.456,65.256 L289.672,65.256 L289.672,63.816 Z M296.328,73 L294.84,73 L294.84,65.256 L296.328,65.256 L296.328,73 Z M296.536,62.904 C296.536,63.170668 296.448001,63.3946658 296.272,63.576 C296.095999,63.7573342 295.864001,63.848 295.576,63.848 C295.298665,63.848 295.072001,63.7573342 294.896,63.576 C294.719999,63.3946658 294.632,63.170668 294.632,62.904 C294.632,62.6426654 294.721332,62.4226676 294.9,62.244 C295.078668,62.0653324 295.309332,61.976 295.592,61.976 C295.864001,61.976 296.089332,62.0653324 296.268,62.244 C296.446668,62.4226676 296.536,62.6426654 296.536,62.904 Z M306.024,69.048 C306.024,69.8800042 305.850668,70.6079969 305.504,71.232 C305.157332,71.8560031 304.672003,72.3359983 304.048,72.672 C303.423997,73.0080017 302.749337,73.176 302.024,73.176 C300.893328,73.176 299.960004,72.8066704 299.224,72.068 C298.487996,71.3293296 298.12,70.3706726 298.12,69.192 C298.12,67.9386604 298.499996,66.9400037 299.26,66.196 C300.020004,65.4519963 300.978661,65.08 302.136,65.08 C303.288006,65.08 304.223996,65.4493296 304.944,66.188 C305.664004,66.9266704 306.024,67.8799942 306.024,69.048 Z M299.64,69.144 C299.64,69.9920042 299.866664,70.6919972 300.32,71.244 C300.773336,71.7960028 301.34133,72.072 302.024,72.072 C302.72267,72.072 303.305331,71.7946694 303.772,71.24 C304.238669,70.6853306 304.472,69.970671 304.472,69.096 C304.472,68.2906626 304.257335,67.6040028 303.828,67.036 C303.398665,66.4679972 302.813337,66.184 302.072,66.184 C301.319996,66.184 300.726669,66.4653305 300.292,67.028 C299.857331,67.5906695 299.64,68.2959958 299.64,69.144 Z M307.832,73 L307.832,67.384 C307.832,66.525329 307.810667,65.8160028 307.768,65.256 L309.08,65.256 L309.208,66.568 C309.453335,66.1199978 309.813331,65.7600014 310.288,65.488 C310.762669,65.2159986 311.282664,65.08 311.848,65.08 C312.658671,65.08 313.333331,65.3666638 313.872,65.94 C314.410669,66.5133362 314.68,67.3519945 314.68,68.456 L314.68,73 L313.192,73 L313.192,68.616 C313.192,67.8853297 313.034668,67.3186687 312.72,66.916 C312.405332,66.5133313 311.949336,66.312 311.352,66.312 C310.818664,66.312 310.346669,66.511998 309.936,66.912 C309.525331,67.312002 309.32,67.7999971 309.32,68.376 L309.32,73 L307.832,73 Z M316.472,72.632 L316.824,71.496 C317.453336,71.8800019 318.103997,72.072 318.776,72.072 C319.256002,72.072 319.626665,71.9706677 319.888,71.768 C320.149335,71.5653323 320.28,71.293335 320.28,70.952 C320.28,70.626665 320.172001,70.3613344 319.956,70.156 C319.739999,69.9506656 319.362669,69.7573342 318.824,69.576 C317.405326,69.0906642 316.696,68.3600049 316.696,67.384 C316.696,66.7333301 316.947997,66.1866689 317.452,65.744 C317.956003,65.3013311 318.626662,65.08 319.464,65.08 C320.242671,65.08 320.903997,65.2399984 321.448,65.56 L321.08,66.632 C320.541331,66.3226651 319.98667,66.168 319.416,66.168 C319.021331,66.168 318.709334,66.2653324 318.48,66.46 C318.250666,66.6546676 318.136,66.9039985 318.136,67.208 C318.136,67.4800014 318.233332,67.7093324 318.428,67.896 C318.622668,68.0826676 319.026664,68.2853322 319.64,68.504 C320.38667,68.770668 320.922665,69.0866648 321.248,69.452 C321.573335,69.8173352 321.736,70.2746639 321.736,70.824 C321.736,71.5280035 321.468003,72.0959978 320.932,72.528 C320.395997,72.9600022 319.666671,73.176 318.744,73.176 C317.895996,73.176 317.13867,72.9946685 316.472,72.632 Z" id="Intelligence-Deliver" fill="#CACACA"></path>
                </g>
            </g>
        </g>
    </g>
</svg>